<?xml version="1.0" encoding="utf-8"?>
<!-- Generator: Adobe Illustrator 19.0.0, SVG Export Plug-In . SVG Version: 6.00 Build 0)  -->
<svg version="1.1" id="图层_1" xmlns="http://www.w3.org/2000/svg" x="0px" y="0px"
     viewBox="1081.6 726 454.5 510.7" style="enable-background:new 1081.6 726 454.5 510.7;" xml:space="preserve">
<style type="text/css">
	.st0{fill:#17BFEE;}
	.st1{fill:#FEFEFE;}
	.st2{fill:#29C4EF;}
</style>
    <g>
	<path class="st0" d="M1300,726.7c6,0,12,0,18,0c16.3,0.6,30.3,7.9,44.4,15c24.7,12.4,49,25.5,74.8,35.7
		c28.7,11.4,58.2,20.2,88.3,26.9c1.8,0.4,3.6,0.9,5.3,1.4c3.4,1,5.3,3.2,5.3,6.9c0.3,17-0.2,33.8-1.5,50.8
		c-1.4,17.6-3.4,35-6.4,52.4c-5.4,31.7-13.7,62.6-25.2,92.8c-13.9,36.5-32,70.9-54.5,102.8c-13,18.5-27.2,36.1-43.1,52.3
		c-23,23.4-47.4,45.3-75.3,62.9c-3.8,2.4-7.7,4.6-11.5,7c-5.8,3.7-11.7,4-17.9,0.8c-17.8-9-33.8-20.6-49.5-32.6
		c-13.7-10.6-26.6-22.3-38.6-34.6c-25.3-26-47.2-54.5-65.3-86c-16.3-28.3-29.4-57.8-39.5-88.8c-10.1-31.1-17-62.9-21.2-95.2
		c-3.4-26.4-5.3-52.9-4.9-79.5c0.2-10.3,0.4-10.9,10.3-13.2c21.8-5,43.4-10.6,64.4-18c19.3-6.8,38.4-14.3,56.7-23.5
		c14.2-7.1,28.3-14.1,42.4-21.3C1269.6,734.5,1283.7,727.3,1300,726.7z"/>
        <path class="st1" d="M1312.1,1003.2c0-0.8,0.1-1.7,0.1-2.5c0-17,0-33.8-0.3-50.8c-0.5-28-0.5-55.8-1-83.8
		c-0.1-6.1-1.5-12.2-0.3-18.4c0.3-1.5-0.1-2.8-1.8-2.9c-1.8-0.2-2.7,1.2-3,2.8c-0.8,4.1-1.5,8.2-2.2,12.3
		c-4.8,29.7-9.9,59.2-14.4,89c-1.9,12.7-5.1,25.1-6.8,37.7c-0.2,1.4-0.7,2.7-1.5,5.6c-3.1-6.9-5.5-12.4-8-18c-1.5-3.5-3-7-4.6-10.5
		c-0.5-1.1-0.7-2.9-2.5-2.7c-1.5,0.1-2,1.7-2.4,2.9c-1.7,5.2-3.2,10.4-4.9,16c-2.2-1.3-2.1-3.2-2.6-4.8c-3-10.1-5.9-20.2-8.9-30.2
		c-0.6-1.9-0.2-5-3.2-4.9c-2.7,0.1-2.5,3.1-3.2,5.1c-0.2,0.5-0.4,0.9-0.6,1.4c-1.9,3.8-1.4,8.4-4.2,11.8c-4.3,2.5-9.1,1.2-13.7,1.3
		c-22,0.2-44,0.1-65.9,0.1c-11.3,0-11.3,0-11.3-11.1c0-12.7,0.1-25.3-0.1-37.9c-0.1-3.6,1.1-4.4,4.5-4.4c33.5,0.1,67,0,100.5,0.2
		c3.3,0,4.9-0.2,4.9-4.4c-0.2-33.4,0.2-66.9-0.1-100.2c0-5.3,1.5-6.2,6.4-6.2c31.3,0.2,62.7,0.2,94,0c4.2,0,5.2,1.2,5.2,5.3
		c-0.2,32.6-0.3,65.2-0.2,97.8c0,10.3-0.8,8.6,8.9,8.7c32.7,0.1,65.3,0.1,98-0.1c4.2,0,5.2,1.2,5.2,5.3c-0.3,14.2-0.2,28.3,0,42.4
		c0.1,3.8-1.1,4.8-4.8,4.8c-36.8-0.1-73.6,0-110.5,0.1c-2.5,0-4-0.9-5.3-2.9c-2.6-4.2-5.4-8.4-8.2-12.6c-0.9-1.3-1.3-3.5-3.4-3.2
		c-2.2,0.3-2.3,2.6-2.7,4.3c-3.1,12.1-6.2,24.2-9.3,36.1c-1,3.9-2,7.7-3,11.6c-3.1,11.7-6.1,23.5-9.2,35.2c-0.3,1.3-0.6,3.1-2.2,2.8
		c-1.8-0.3-1-2.2-1-3.3C1312.2,1019.6,1313,1011.4,1312.1,1003.2z"/>
        <path class="st1" d="M1253.7,1012.3c0-1,0-2,0.1-3c-2.2,0.2-3.8-1.4-5.8-1.9c-32.3,0-64.6-0.2-96.9,0.1c-5,0-6.4-1.2-6.2-6.2
		c0.4-11,0.3-22,0.1-32.9c-0.1-3.5,0.7-4.9,4.6-4.9c17.6,0.2,35.3-0.4,52.9,0.3c10.3,0.4,20.6-1.1,30.9-0.1c5.1,0.5,7.3-1.4,8.2-6.1
		c0.2-1.4,0.4-3,2-3.9c2,1.2,1.8,3.5,2.3,5.3c3.1,10.4,5.9,20.8,8.9,31.2c0.4,1.6,0.6,3.6,2.7,3.7c2.3,0.1,2.9-1.9,3.4-3.7
		c1.3-4.7,2.5-9.3,3.7-14c0.2-0.9,0.2-2.2,1.3-2.5c1.6-0.4,1.8,1.2,2.2,2.2c3.9,8.1,7.7,16.3,11.5,24.4c0.7,1.4,0.9,3.7,3,3.4
		s1.7-2.6,2-4.1c4.8-28.1,9.5-56,14.2-84.1c1.6-9.7,3.4-19.3,5.2-29c0.8-1,1.7-2.1,2.5,0c0,0.7,0-0.2,0,0.5
		c-0.7,33.3,0.8,66.7,1.3,100c0.3,20.2,0.3,40.4,0.7,60.6c0,2.1,0.2,4,1.5,5.6c4.1,1.1,4.8-2,5.5-4.7c3.1-11.9,6.2-23.8,9-35.7
		c4.5-19.1,9.3-38,14.5-56.9c0.4-1.6,1-3.1,1.6-5.2c3.5,2.5,4.9,6,6.7,8.9c1.9,3,4.1,4.3,7.7,4.3c37.2-0.2,74.3-0.1,111.5-0.3
		c4.4,0,5.7,1.1,5.5,5.5c-0.3,11.3-0.4,22.7,0,33.9c0.2,4.9-1.6,5.6-5.9,5.6c-33.2-0.2-66.3-0.2-99.5-0.3c-6.2,0-6.7,0.5-6.7,6.8
		c0,33.1,0,66.2,0.2,99.3c0,3.8-1,4.7-4.7,4.7c-33.8-0.1-67.7-0.1-101.5-0.1c-0.8-1-0.6-2.2-0.6-3.4c0-33.8,0-67.7,0-101.4
		C1253.5,1013.6,1253.6,1013,1253.7,1012.3z"/>
        <path class="st2" d="M1253.7,1012.3c0,33.7,0.1,67.5,0.1,101.3c0,1.8,0.1,3.7,0.2,5.5c-1.4-1.5-1.1-3.4-1.1-5.2
		c0-32.2,0-64.5,0-96.7C1253,1015.4,1252.8,1013.8,1253.7,1012.3z"/>
        <path class="st0" d="M1248,1007.5c2.2-0.1,4.3-0.1,5.8,1.9C1251.1,1011.1,1249.7,1008.9,1248,1007.5z"/>
</g>
</svg>
